<svg xmlns="http://www.w3.org/2000/svg" width="512" height="512" viewBox="0 0 512 512" version="1.1">
	<path d="M 141.500 98.402 C 140.950 98.611, 137.800 99.571, 134.500 100.534 C 108.409 108.150, 90.902 130.671, 90.608 157 C 90.476 168.814, 93.320 176.732, 105.469 198.378 C 112.035 210.076, 136.757 243.680, 147.082 254.942 L 150.237 258.383 154.869 253.431 C 164.910 242.695, 185.519 215.091, 193.978 201.046 C 200.646 189.976, 207 177.176, 207 174.815 C 207 174.037, 207.424 172.973, 207.942 172.450 C 210 170.375, 211.012 158.675, 209.883 150 C 209.275 145.325, 208.439 141.050, 208.027 140.500 C 207.614 139.950, 206.988 138.293, 206.636 136.819 C 205.554 132.284, 198.812 121.898, 193.424 116.467 C 181.330 104.276, 170.083 99.396, 152 98.494 C 146.775 98.233, 142.050 98.192, 141.500 98.402 M 141.760 120.558 C 133.754 122.498, 128.506 125.399, 122.952 130.952 C 117.217 136.688, 114.488 141.772, 112.466 150.490 C 111.096 156.396, 111.106 157.621, 112.564 163.261 C 114.780 171.828, 121.529 185.064, 130.458 198.350 C 140.027 212.589, 149.253 224.500, 150.714 224.500 C 153.102 224.500, 173.917 194.852, 181.218 181.052 C 187.530 169.122, 189.001 164.370, 188.978 156 C 188.953 147.415, 187.156 142.537, 181.027 134.420 C 175.994 127.753, 167.854 122.413, 159.847 120.526 C 152.221 118.728, 149.288 118.733, 141.760 120.558 M 146 137.612 C 135.413 141.617, 130 148.446, 130 157.797 C 130 165.422, 134.687 173.188, 141.406 176.696 C 145.272 178.714, 154.937 178.733, 159.152 176.730 C 168.354 172.357, 173.573 159.898, 170.067 150.676 C 168.708 147.102, 163.350 141.323, 159.680 139.474 C 156.258 137.751, 148.445 136.687, 146 137.612 M 347.500 231.125 C 324.728 238.469, 313.028 249.068, 304.589 270 C 303.377 273.007, 302.604 278.242, 302.260 285.774 C 301.697 298.137, 303.027 304.058, 309.078 316.119 C 317.950 333.804, 329.953 351.692, 348.589 375 C 362.483 392.378, 360.126 391.923, 370.676 379.268 C 380.746 367.188, 396.855 345.546, 400.500 339.200 C 401.050 338.242, 402.522 336.035, 403.771 334.296 C 407.634 328.915, 415.711 312.664, 418.637 304.385 C 425.680 284.455, 418.935 261.197, 401.472 245.195 C 390.169 234.838, 376.919 229.949, 360.503 230.079 C 355.001 230.122, 349.150 230.593, 347.500 231.125 M 348.474 252.854 C 338.462 256.948, 330.232 264.780, 325.549 274.671 C 323.365 279.284, 322.805 281.940, 322.746 287.968 C 322.676 295.106, 322.960 296.101, 328.174 307 C 331.200 313.325, 336.578 322.775, 340.126 328 C 352.785 346.645, 357.300 352.933, 359.542 355.039 L 361.815 357.175 368.158 348.659 C 385.816 324.947, 396.882 305.892, 399.494 294.697 C 403.372 278.072, 391.420 258.691, 373.572 252.664 C 367.173 250.503, 353.978 250.603, 348.474 252.854 M 147 268.669 C 143.011 269.488, 140.997 271.930, 141.032 275.905 C 141.090 282.480, 142.777 283.500, 153.600 283.500 C 162.570 283.500, 163.224 283.357, 165.035 281 C 167.571 277.698, 167.482 275.115, 164.711 271.652 C 162.697 269.135, 161.681 268.767, 155.966 268.480 C 152.410 268.302, 148.375 268.387, 147 268.669 M 184.174 271.314 C 181.650 274.002, 181.342 278.615, 183.483 281.672 C 184.534 283.172, 186.814 284.111, 191.315 284.894 C 198.481 286.142, 211.933 286.348, 213.600 285.235 C 217.170 282.851, 217.627 275.595, 214.377 272.898 C 212.693 271.501, 197.894 269.054, 190.924 269.022 C 187.417 269.005, 185.841 269.540, 184.174 271.314 M 351.118 271.945 C 343.932 276.565, 341.596 280.340, 341.212 287.949 C 340.800 296.114, 343.635 302.061, 350.013 306.410 C 366.556 317.692, 388.155 299.975, 380.422 281.467 C 375.674 270.104, 361.264 265.422, 351.118 271.945 M 233.635 281.073 C 229.141 284.607, 229.994 288.282, 237 295.579 C 240.300 299.015, 243 302.501, 243 303.325 C 243 305.342, 248.668 310, 251.122 310 C 254.508 310, 258.003 305.563, 257.978 301.295 C 257.933 293.553, 250.725 283.872, 242.422 280.403 C 237.948 278.534, 236.746 278.625, 233.635 281.073 M 224 314.979 C 220.975 316.018, 217.685 316.897, 216.688 316.934 C 215.692 316.970, 212.429 318.158, 209.438 319.573 C 204.277 322.014, 204 322.336, 204 325.898 C 204 331.656, 207.494 334.462, 213.717 333.702 C 222.131 332.675, 234.282 328.197, 236.745 325.217 C 239.581 321.785, 239.582 319.763, 236.750 316.593 C 233.679 313.156, 230.485 312.752, 224 314.979 M 176.500 326.047 C 174.850 326.511, 171.250 327.412, 168.500 328.050 C 165.750 328.689, 163.072 329.613, 162.550 330.105 C 162.028 330.597, 160.823 331, 159.873 331 C 157.122 331, 153.777 335.970, 154.518 338.957 C 155.368 342.386, 158.888 346, 161.379 346 C 164.927 346, 185.428 339.849, 187.250 338.238 C 190.060 335.753, 189.572 329.595, 186.365 327.073 C 183.589 324.889, 181.425 324.664, 176.500 326.047 M 130.273 346.750 C 125.104 351.260, 123 356.441, 123 364.658 C 123 370.933, 123.329 372.238, 125.589 374.923 C 127.504 377.199, 129.026 378, 131.434 378 C 136.432 378, 138.474 375.074, 138.192 368.320 C 138.009 363.955, 138.499 361.802, 140.480 358.257 C 143.696 352.504, 143.664 349.520, 140.354 346.452 C 136.922 343.272, 134.166 343.353, 130.273 346.750 M 151.196 381.488 C 147.515 384.586, 146.848 386.976, 148.635 390.665 C 150.287 394.078, 154.285 395.958, 166.225 398.939 C 174.528 401.011, 175.122 401.036, 178.475 399.445 C 181.689 397.920, 182 397.399, 182 393.541 C 182 388.141, 180.510 386.852, 171 384.024 C 166.875 382.797, 161.572 381.165, 159.215 380.397 C 153.896 378.663, 154.681 378.556, 151.196 381.488 M 199.566 393.343 C 194.233 398.676, 197.689 404.962, 207 406.862 C 210.025 407.480, 215.776 408.279, 219.780 408.639 C 226.493 409.242, 227.252 409.112, 229.530 406.972 C 232.270 404.398, 232.841 399.532, 230.739 396.658 C 229.247 394.617, 220.510 392.454, 209.816 391.478 C 202.455 390.807, 202.024 390.885, 199.566 393.343 M 251.736 396.740 C 249.914 397.166, 247 401.826, 247 404.315 C 247 405.094, 247.912 406.890, 249.028 408.308 C 251.241 411.122, 253.058 411.509, 268.590 412.480 C 277.445 413.033, 277.748 412.979, 280.340 410.387 C 281.803 408.924, 283 406.724, 283 405.498 C 283 402.109, 279.340 398.139, 275.707 397.588 C 270.987 396.871, 253.782 396.263, 251.736 396.740 M 310 398.656 C 308.625 398.867, 306.034 399.277, 304.242 399.566 C 299.954 400.260, 297.563 403.855, 298.405 408.343 C 299.265 412.931, 301.481 413.703, 316.190 414.541 L 328.657 415.251 330.829 412.491 C 333.489 409.108, 333.658 403.906, 331.180 401.663 C 328.189 398.956, 317.727 397.471, 310 398.656 M 350.994 402.734 C 348.608 405.768, 348.856 410.285, 351.558 412.987 C 353.714 415.142, 370.286 415.142, 372.442 412.987 C 375.144 410.285, 375.392 405.768, 373.006 402.734 C 370.952 400.123, 370.456 400, 362 400 C 353.544 400, 353.048 400.123, 350.994 402.734" stroke="none" fill="black" fill-rule="evenodd"/>
</svg>